
<svg xmlns="http://www.w3.org/2000/svg" version="1.1" xmlns:xlink="http://www.w3.org/1999/xlink" preserveAspectRatio="none" x="0px" y="0px" width="64px" height="64px" viewBox="0 0 64 64">
<defs>
<path id="_NEW__ICONS_TRAFFIC_0_Layer1_0_1_STROKES" stroke="#000000" stroke-width="2" stroke-linejoin="round" stroke-linecap="round" fill="none" d="
M 12.1 -9.35
Q 10.5 -10.7 4.4 -10.95 -1.75 -11.2 -7.4 -10.85 -13.1 -10.6 -14.7 -8.8 -16.1 -7.2 -16.35 -5.8 -17.2 -2.65 -18.15 4.15 -20.05 4.25 -20.3 7
L -20.3 16.55 -16.95 16.55
Q -17.5 22.25 -14.7 21.95
L -11.75 21.95
Q -9.05 22 -9.85 16.55
L -5.65 16.55
Q -5.65 16.45 -5.65 16.4 -5.65 15.95 -5.55 15.45 -5.45 14.55 -5.05 13.65 -4 11.35 -2.05 11.55 -1.85 7.15 -0.9 4.15
L -13.2 4.15
Q -13.25 1.7 -11.75 -4.4 -10.85 -6.35 -8.9 -6.55
L 13.55 -6.55
Q 13.05 -8.6 12.1 -9.35 Z"/>

<path id="_NEW__ICONS_TRAFFIC_0_Layer0_0_1_STROKES" stroke="#000000" stroke-width="2" stroke-linejoin="round" stroke-linecap="round" fill="none" d="
M -0.8 25.6
L 2.45 25.6
Q 1.95 31.35 4.75 31
L 7.75 31
Q 10.45 31.1 9.6 25.6
L 24.9 25.6
Q 24.3 31.35 27.15 31
L 30.1 31
Q 32.8 31.1 32 25.6
L 36.8 25.6 36.8 16.6
Q 37.45 13.55 34.65 13.2 34.35 11.1 34.15 9.55 34.1 8.95 34.05 8.5 33.7 6.4 33.6 5.75 33.05 1 31.55 -0.3 30 -1.6 23.85 -1.85 17.75 -2.15 12.1 -1.8 6.4 -1.55 4.75 0.3 3.35 1.85 3.15 3.3 2.3 6.4 1.35 13.2 -0.55 13.35 -0.8 16.05
L -0.8 25.6 Z
M 6.3 13.2
Q 6.25 10.8 7.75 4.65 8.6 2.7 10.55 2.5
L 24.1 2.5
Q 27.85 2.35 28.75 5.85 29.8 10.15 29.85 13.2
L 6.3 13.2 Z"/>
</defs>

<g transform="matrix( 1.01141357421875, 0, 0, 1.01141357421875, 24.1,21.3) ">
<g transform="matrix( 1, 0, 0, 1, 0,0) ">
<use xlink:href="#_NEW__ICONS_TRAFFIC_0_Layer1_0_1_STROKES"/>
</g>

<g transform="matrix( 1, 0, 0, 1, 0,0) ">
<use xlink:href="#_NEW__ICONS_TRAFFIC_0_Layer0_0_1_STROKES"/>
</g>
</g>
</svg>
